<?xml version="1.0" encoding="UTF-8" standalone="no"?>
<svg
   xmlns:figma="http://www.figma.com/figma/ns"
   xmlns:dc="http://purl.org/dc/elements/1.1/"
   xmlns:cc="http://creativecommons.org/ns#"
   xmlns:rdf="http://www.w3.org/1999/02/22-rdf-syntax-ns#"
   xmlns:svg="http://www.w3.org/2000/svg"
   xmlns="http://www.w3.org/2000/svg"
   xmlns:sodipodi="http://sodipodi.sourceforge.net/DTD/sodipodi-0.dtd"
   xmlns:inkscape="http://www.inkscape.org/namespaces/inkscape"
   inkscape:version="1.0 (4035a4f, 2020-05-01)"
   sodipodi:docname="logo.svg"
   id="svg33"
   version="1.1"
   viewBox="0 0 109 24">
  <metadata
     id="metadata37">
    <rdf:RDF>
      <cc:Work
         rdf:about="">
        <dc:format>image/svg+xml</dc:format>
        <dc:type
           rdf:resource="http://purl.org/dc/dcmitype/StillImage" />
      </cc:Work>
    </rdf:RDF>
  </metadata>
  <sodipodi:namedview
     inkscape:current-layer="g22"
     inkscape:window-maximized="0"
     inkscape:window-y="23"
     inkscape:window-x="0"
     inkscape:cy="5.8124419"
     inkscape:cx="82.702609"
     inkscape:zoom="4.52521"
     showgrid="false"
     id="namedview35"
     inkscape:window-height="708"
     inkscape:window-width="1380"
     inkscape:pageshadow="2"
     inkscape:pageopacity="0"
     guidetolerance="10"
     gridtolerance="10"
     objecttolerance="10"
     borderopacity="1"
     bordercolor="#666666"
     pagecolor="#ffffff" />
  <title
     id="title10">Logo</title>
  <g
     id="g24"
     figma:type="canvas"
     transform="translate(-1470)">
    <g
       id="g22"
       fill="#f40"
       transform="translate(1470)"
       figma:type="vector"
       style="mix-blend-mode:normal">
      <text
         transform="scale(1.0196684,0.98071096)"
         id="text41"
         y="24.097363"
         x="6.0628633"
         style="font-style:normal;font-weight:normal;font-size:33.0386px;line-height:1.25;font-family:sans-serif;fill:#ff0000;fill-opacity:1;stroke:none;stroke-width:0.825966"
         xml:space="preserve"><tspan
           style="font-style:normal;font-variant:normal;font-weight:bold;font-stretch:normal;font-family:Helvetica;-inkscape-font-specification:'Helvetica Bold';fill:#ff0000;stroke-width:0.825966"
           y="24.097363"
           x="6.0628633"
           id="tspan39"
           sodipodi:role="line">YAZID</tspan></text>
    </g>
  </g>
  <defs
     id="defs31">
    <path
       d="M22.735 23.171c.283.323.053.829-.376.829h-5.907c-.285 0-.556-.121-.745-.333l-9.414-10.526v10.36c0 .276-.224.5-.5.5h-5.293c-.276 0-.5-.224-.5-.5v-23c0-.276.224-.5.5-.5h5.293c.276 0 .5.224.5.5v9.815l9.141-9.99c.19-.207.457-.325.738-.325h5.762c.437 0 .664.521.366.841l-9.851 10.563 10.287 11.767z"
       id="b" />
    <path
       d="M45.991 24c-.199 0-.38-.118-.459-.301l-2.024-4.669h-10.67l-2.024 4.669c-.079.183-.259.301-.459.301h-5.212c-.366 0-.608-.381-.453-.712l10.782-23c.082-.176.259-.288.453-.288h4.358c.194 0 .37.112.453.287l10.815 23c.156.332-.086.713-.452.713h-5.108zm-11.135-9.668h6.635l-3.317-7.694-3.317 7.694z"
       id="c" />
    <path
       d="M55.525 24c-.276 0-.5-.224-.5-.5v-23c0-.276.224-.5.5-.5h5.293c.276 0 .5.224.5.5v18.428h9.759c.276 0 .5.224.5.5v4.072c0 .276-.224.5-.5.5h-15.552z"
       id="d" />
    <path
       d="M75.279.5c0-.276.224-.5.5-.5h9.315c2.667 0 4.959.477 6.874 1.43 1.938.953 3.42 2.338 4.446 4.153 1.026 1.793 1.539 3.926 1.539 6.4 0 2.496-.513 4.652-1.539 6.468-1.003 1.793-2.474 3.166-4.412 4.119-1.915.953-4.218 1.43-6.908 1.43h-9.315c-.276 0-.5-.224-.5-.5v-23zm9.37 18.462c2.371 0 4.138-.579 5.301-1.736 1.163-1.157 1.744-2.905 1.744-5.242 0-2.338-.581-4.074-1.744-5.209-1.163-1.157-2.93-1.736-5.301-1.736h-3.078v13.923h3.078z"
       id="e" />
    <path
       d="M102.913 24c-.276 0-.5-.224-.5-.5v-23c0-.276.224-.5.5-.5h5.293c.276 0 .5.224.5.5v23c0 .276-.224.5-.5.5h-5.293z"
       id="f" />
  </defs>
</svg>
